<?xml version="1.0" encoding="UTF-8"?>
<svg width="512px" height="512px" viewBox="0 0 512 512" version="1.1" xmlns="http://www.w3.org/2000/svg" xmlns:xlink="http://www.w3.org/1999/xlink">
    <!-- Generator: Sketch 61.2 (89653) - https://sketch.com -->
    <title>Icon</title>
    <desc>Created with Sketch.</desc>
    <g id="Icon" stroke="none" stroke-width="1" fill="none" fill-rule="evenodd">
        <g id="Group" transform="translate(-1.000000, 48.000000)">
            <path d="M10.1118485,361.000001 L10.1118485,55.0000015 C10.1118485,30.1471878 27.7717279,10.0000015 49.5562929,10.0000015 L294.111848,10.0000015 L294.111848,316.132327 L48.1108675,316.000001 M48.2697432,316.000001 C27.1957199,316.000001 10.1118485,336.147187 10.1118485,361.000001 C10.1118485,385.852816 27.1957199,406.000001 48.2697432,406.000001 L294.722658,406.000001 M286.111848,316.000001 C264.572743,316.000001 247.111848,336.147187 247.111848,361.000001 C247.111848,385.852816 264.572743,406.000001 286.111848,406.000001 L286.111848,406.000001" id="Shape" stroke="#FF8986" stroke-width="20" stroke-linecap="round" stroke-linejoin="round" transform="translate(152.417253, 208.000001) scale(-1, 1) translate(-152.417253, -208.000001) "></path>
        </g>
        <g id="Group-2" transform="translate(346.000000, 48.000000)">
            <path d="M10.0780565,361 L10.0780565,55.0376793 C10.0780565,30.1640559 28.7450507,10 51.7719483,10 C98.130221,10 132.898924,10 156.078057,10 L156.078057,316.256219 L51.6414107,316.388655 C41.1991405,316.388655 31.8480984,320.361014 23.5882846,328.305732 C15.3284708,336.25045 10.8250614,347.148539 10.0780565,361 Z M51.8989676,316 C28.8019163,316 10.0780565,336.147186 10.0780565,361 C10.0780565,385.852814 28.8019163,406 51.8989676,406 L156.078057,406 L156.078057,316 L51.8989676,316 Z" id="Shape" stroke="#77E3C4" stroke-width="20" stroke-linejoin="round"></path>
        </g>
    </g>
</svg>
